<svg id="Layer_1" data-name="Layer 1" xmlns="http://www.w3.org/2000/svg" viewBox="0 0 47 51"><defs><style>.cls-1{fill:none;stroke:#8247ff;stroke-linecap:round;stroke-linejoin:round;stroke-width:2px;}</style></defs><title>cube</title><path class="cls-1" d="M7222,7209.16v-19.52a4.76,4.76,0,0,0-.67-2.44,5,5,0,0,0-1.83-1.79l-17.5-9.76a5.13,5.13,0,0,0-5,0l-17.5,9.76a5,5,0,0,0-1.83,1.79,4.76,4.76,0,0,0-.67,2.44v19.52a4.76,4.76,0,0,0,.67,2.44,4.89,4.89,0,0,0,1.83,1.78l17.5,9.77a5.13,5.13,0,0,0,5,0l17.5-9.77a4.89,4.89,0,0,0,1.83-1.78A4.76,4.76,0,0,0,7222,7209.16Z" transform="translate(-7176 -7174)"/><path class="cls-1" d="M7177.67,7187.1l21.83,12.32,21.83-12.32" transform="translate(-7176 -7174)"/><path class="cls-1" d="M7199.5,7224v-24.6" transform="translate(-7176 -7174)"/></svg>