<?xml version="1.0" encoding="utf-8"?>
<!-- Generator: Adobe Illustrator 24.0.3, SVG Export Plug-In . SVG Version: 6.00 Build 0)  -->
<svg version="1.1" id="Layer_1" xmlns="http://www.w3.org/2000/svg" xmlns:xlink="http://www.w3.org/1999/xlink" x="0px" y="0px"
	 viewBox="0 0 47 51" style="enable-background:new 0 0 47 51;" xml:space="preserve">
<style type="text/css">
	.st0{fill:#E95AE3;stroke:#CB1CC4;stroke-width:2;stroke-linecap:round;stroke-linejoin:round;}
</style>
<title>cube</title>
<path class="st0" d="M46,35.2V15.6c0-0.9-0.2-1.7-0.7-2.4c-0.4-0.7-1.1-1.4-1.8-1.8L26,1.7c-1.6-0.9-3.4-0.9-5,0L3.5,11.4
	c-0.8,0.4-1.4,1-1.8,1.8C1.2,13.9,1,14.8,1,15.6v19.5c0,0.9,0.2,1.7,0.7,2.4c0.4,0.7,1.1,1.4,1.8,1.8L21,49.1c1.6,0.9,3.4,0.9,5,0
	l17.5-9.8c0.8-0.4,1.4-1,1.8-1.8C45.8,36.9,46,36,46,35.2z"/>
<path class="st0" d="M1.7,13.1l21.8,12.3l21.8-12.3"/>
<path class="st0" d="M23.5,50V25.4"/>
</svg>
