<?xml version="1.0" encoding="utf-8"?>
<!-- Generator: Adobe Illustrator 24.0.3, SVG Export Plug-In . SVG Version: 6.00 Build 0)  -->
<svg version="1.1" id="Layer_1" xmlns="http://www.w3.org/2000/svg" xmlns:xlink="http://www.w3.org/1999/xlink" x="0px" y="0px"
	 viewBox="0 0 500 300" style="enable-background:new 0 0 500 300;" xml:space="preserve">
<style type="text/css">
	.st0{fill:#E82861;}
</style>
<g>
	<g>
		<path d="M108.3,166.3c0.3,3.6,1.2,6,2.7,7.5c2.4,2.7,7.2,3.9,13.8,3.9c3.9,0,7.2-0.6,9.3-1.8c2.4-1.2,3.6-3,3.6-5.4
			s-0.9-3.9-2.7-5.1c-1.8-1.2-9-3.3-21-6c-8.7-2.1-14.7-4.8-18.3-8.1c-3.6-3.3-5.4-7.8-5.4-13.8c0-7.2,2.7-13.2,8.4-18.3
			c5.7-5.1,13.5-7.5,23.4-7.5c9.6,0,17.4,1.8,23.4,5.7c6,3.9,9.6,10.5,10.5,19.8h-20.1c-0.3-2.7-0.9-4.5-2.1-6
			c-2.1-2.7-6-4.2-11.4-4.2c-4.5,0-7.5,0.6-9.3,2.1s-2.7,3-2.7,4.8c0,2.4,0.9,3.9,3,5.1s9,3,21,5.7c8.1,1.8,14.1,4.8,18,8.4
			c3.9,3.9,6,8.7,6,14.4c0,7.5-2.7,13.8-8.4,18.6s-14.4,7.2-26.2,7.2c-12,0-21-2.4-26.8-7.5c-5.7-5.1-8.7-11.7-8.7-19.5L108.3,166.3
			L108.3,166.3z"/>
		<path d="M165.1,129v-14.4h10.8V93.2h19.8v21.3h12.3V129h-12.3v40.6c0,3,0.3,5.1,1.2,6c0.9,0.9,3.3,1.2,7.2,1.2c0.6,0,1.2,0,1.8,0
			s1.2,0,2.1,0v15l-9.6,0.3c-9.6,0.3-15.9-1.2-19.5-4.8c-2.4-2.4-3.3-5.7-3.3-10.5v-47.2h-10.5V129z"/>
		<path d="M251.7,144c3.6-0.6,6.3-1.2,8.1-1.8c3-1.2,4.2-3,4.2-5.7c0-3-1.2-5.4-3.3-6.6c-2.1-1.2-5.4-1.8-9.6-1.8
			c-4.8,0-8.1,1.2-10.2,3.6c-1.5,1.8-2.4,4.2-3,6.9h-19.2c0.3-6.6,2.4-12.3,5.7-16.5c5.4-6.6,14.4-10.2,27.4-10.2
			c8.4,0,15.9,1.8,22.5,5.1c6.6,3.3,9.9,9.6,9.9,18.9v35.2c0,2.4,0,5.4,0,9c0,2.7,0.6,4.5,1.2,5.4s1.5,1.8,3,2.4v3h-21.9
			c-0.6-1.5-0.9-3-1.2-4.5s-0.3-3-0.6-4.5c-2.7,3-6,5.7-9.6,7.8c-4.2,2.4-9.3,3.6-14.7,3.6c-6.9,0-12.6-2.1-17.4-6
			c-4.5-3.9-6.9-9.6-6.9-16.8c0-9.3,3.6-16.2,11.1-20.4c3.9-2.4,9.9-3.9,17.7-4.8L251.7,144z M263.7,153.7c-1.2,0.9-2.7,1.5-3.9,1.8
			c-1.2,0.3-3,0.9-5.4,1.5l-4.5,0.9c-4.2,0.6-7.2,1.8-9.3,2.7c-3.3,1.8-4.8,4.8-4.8,8.4c0,3.3,0.9,6,3,7.5c2.1,1.5,4.2,2.4,6.9,2.4
			c4.5,0,8.4-1.2,12-3.9c3.6-2.7,5.7-7.2,5.7-13.8v-7.5H263.7z"/>
		<path d="M347.3,141.6c-0.3-3-1.2-5.4-3-7.8c-2.4-3-5.7-4.5-10.5-4.5c-6.9,0-11.4,3.3-13.8,10.2c-1.2,3.6-2.1,8.4-2.1,14.1
			s0.6,10.2,2.1,13.5c2.4,6.3,6.9,9.6,13.5,9.6c4.8,0,8.1-1.2,9.9-3.9s3.3-5.7,3.6-9.9h20.4c-0.6,6-2.7,12-6.6,17.4
			c-6.3,8.7-15.6,13.2-28,13.2c-12.3,0-21.3-3.6-27.4-11.1c-6-7.5-8.7-16.8-8.7-28.6c0-13.2,3.3-23.4,9.6-30.7s15.3-11.1,26.8-11.1
			c9.6,0,17.4,2.1,23.7,6.6c6.3,4.5,9.6,12,10.8,22.8L347.3,141.6L347.3,141.6z"/>
		<path d="M381.6,87.5h19.8v55.9l25.3-28.9h25l-27.7,28.6l28.6,47.8h-24.4l-18.6-32.8l-8.4,8.7v24.1h-19.8V87.5H381.6z"/>
		<path d="M454,129v-14.4h10.8V93.2h19.8v21.3H497V129h-12.3v40.6c0,3,0.3,5.1,1.2,6c0.9,0.9,3.3,1.2,7.2,1.2c0.6,0,1.2,0,1.8,0
			s1.2,0,2.1,0v15l-9.6,0.3c-9.6,0.3-15.9-1.2-19.5-4.8c-2.4-2.4-3.3-5.7-3.3-10.5v-47.2H454V129z"/>
	</g>
	<g>
		<g>
			<path class="st0" d="M42.5,184.6c-0.3,0.3-0.3,0.6-0.6,0.9c0,0.3-0.3,0.6-0.3,0.9c0-0.3,0-0.6-0.3-0.6s-0.6,0-1.5,0s-1.2,0-1.5,0
				c0,0-0.6,0-1.5-0.3s-1.5-0.6-2.1-0.6h-0.3l-0.6-0.3h-0.3h-0.3l-0.3,0.3h-0.3h-0.3l0,0c0-0.3,0-0.6,0-1.2
				c-0.3-0.6-0.3-0.9-0.6-1.2c-0.3-0.3-0.6-0.3-1.5-0.6c-0.6-0.3-1.2-0.3-1.5-0.3v-1.2l-2.4,1.5c0,0,0,0-0.3-0.3s-0.6-0.6-0.6-0.9
				c-0.3-0.3-0.3-0.6,0-1.2s0-0.9-0.6-0.9c-0.6,0.3-0.6,0.3-0.6,0.6c0,0.3,0,0.6,0,0.9s0,0.6-0.3,0.9s-0.6,0.3-1.5,0.3
				c-1.8,0-3-0.3-3.3-0.6c-0.6-0.6-0.6-1.2-0.6-1.8c0-0.6,0-1.5,0-2.1s-0.3-1.2-0.9-1.2c-0.3,0-0.6-0.3-1.5-0.3c-0.9,0-1.5,0-1.8,0
				l0.6-1.2c-0.9,0-1.8-0.3-2.4-0.9s-1.2-1.2-1.8-1.8c-0.6-0.6-0.9-1.5-1.5-2.4c-0.3-0.9-0.9-1.5-1.2-2.4c0,0-0.3-0.3-0.6-0.9
				c-0.3-0.6-0.6-0.9-0.9-1.2c-1.2-1.5-2.1-3-2.4-3.9c-0.3-1.2-0.6-2.4-1.2-3.9l-0.3-0.3l-0.3-0.3c0-0.3-0.3-1.2-0.3-2.4
				c0-1.2-0.3-1.8-0.3-2.1v-2.1c0-0.6,0-1.2,0.3-1.8c0.3-0.6,0.3-1.2,0.3-2.1v-0.6c0,0,0-0.3-0.3-0.6c-0.3-0.3-0.3-0.6-0.3-0.6V141
				c0-0.3,0-1.2,0-2.1s0.3-2.1,0.3-3.3c0.3-1.2,0.6-2.1,0.9-3s0.9-1.2,1.5-1.2c0,0.6,0,0.9-0.3,1.2c-0.3,0.3-0.3,0.6-0.3,1.2
				c0.3,0,0.9,0,1.8,0s1.2,0,1.5-0.6c0-0.3,0.3-0.6,0.3-1.2c0.3-0.6,0.3-0.9,0.3-0.9h0.3v1.2c0.3,0,0.6,0,0.9,0.3
				c0.3,0,0.6,0.3,0.6,0l0.3-0.3L10,132c0.3,0,0.6,0,1.2-0.3c0.6,0,0.9-0.3,1.2-0.3v-0.6c0-1.2-0.3-2.1-0.6-3
				c-0.6-0.9-0.6-2.1-0.6-3.3c0.6,0,1.2,0,1.5,0.3c0.6,0.3,0.9,0.3,1.5,0.3s0.9-0.3,0.9-0.6c-0.3-0.6-0.6-0.6-0.9-0.6
				s-0.9,0-1.2-0.3v-0.3c0-0.3,0.3-0.9,0.6-1.5c0.3-0.6,0.6-1.2,0.6-1.5c0,0,0.3,0,0.9,0c0.3,0,0.9,0,0.9,0c0.3,0,0.9,0,1.8,0
				s1.5,0.3,1.5,0.9c0,0,0,0.3-0.3,0.6c-0.3,0.3-0.3,0.6-0.3,0.6v0.3c0.9,0,1.8,0,2.7-0.3c1.2-0.3,1.8-0.6,2.4-1.2
				c0.3-0.3,0.3-0.9,0.6-1.8c0-0.9,0.6-1.5,0.9-1.5c0,0.9,0.6,1.5,1.5,1.5c0.3,0,0.6,0,1.2,0c0.3,0,0.9-0.3,0.9-0.6
				c0-0.3,0-0.6,0-0.9l-0.3-0.6h-2.1c0.3,0,0.3,0,0.3-0.3s0-0.3,0-0.6c0-0.3,0-0.6,0-0.9s-0.3-0.6-0.3-0.6h0.3h0.3
				c0,0,0.3,0,0.9,0.3c0.3,0.3,0.9,0.6,0.9,0.6c0.3,0,0.6,0.3,1.5,0.3s1.2,0.3,1.5,0.9c0.3,0.9,0.3,1.5,0.3,2.4s0.6,1.5,1.2,2.1h0.3
				H34v-1.2h0.3l0,0c0,0,0.3,0.3,0.6,0.6c0.3,0.3,0.6,0.6,0.6,0.6l0,0h0.3c0.3,0,0.9,0,1.5-0.3c0.6,0,1.2-0.3,1.5-0.3v-0.3
				c0-0.6-0.3-0.9-0.9-0.9s-1.2-0.3-1.2-0.6l0,0v-0.3c0-0.3,0.3-0.6,0.6-0.9c0.3-0.3,0.3-0.6,0.6-0.6c0.3,0,0.6,0.3,1.2,0.6
				c0.6,0.3,0.9,0.6,1.2,0.6l0,0c1.2,0,1.8-0.3,1.8-1.2c0.3-0.6,0.6-1.5,1.2-1.8c0.3,0.3,0.6,0.6,0.9,1.2c0.3,0.6,0.6,0.9,0.9,1.2
				c0,0,0.3,0,0.3,0.3s0.3,0.6,0.3,0.6h0.3l0,0c0,0,0.3,0,0.3-0.3h0.3v-4.8l0.9-0.3c-0.3,1.2-0.3,2.1,0,3.3c0.3,1.2,0.6,2.4,1.2,3.3
				l0.9-0.3v-5.4H50h0.3h0.3c0.3,0,0.3,0,0.3,0.3c0.3,0.3,0.3,0.9,0.6,1.8c0,0.9,0.3,1.5,0.3,1.8l0,0h0.3c0,0,0.3-0.3,0.6-0.6
				c0.3-0.3,0.6-0.6,0.6-0.6h5.1c-0.3,0.3-0.3,0.6-0.6,1.2c-0.3,0.6-0.3,1.2-0.3,1.2s0,0.3,0,0.6c0,0.3,0.3,0.3,0.3,0.6
				c0.3,0.3,0.6,0.3,1.5,0.3c0.6,0,1.2,0,1.5,0c0,0.3-0.3,0.3-0.6,0.3c-0.3,0-0.6,0-1.2,0c-0.3,0-0.9,0.3-1.2,0.3
				c-0.3,0.3-0.9,0.6-0.9,1.5c0-0.3,0-0.9-0.3-1.5s-0.3-1.2-0.3-1.5s0-0.6,0-0.9s-0.3-0.6-0.3-0.9c-0.3-0.6-0.6-0.6-0.6-0.6
				s-0.6,0.3-0.9,0.3c0,1.5,0.3,2.4,0.6,3c0.3,0.6,0.6,1.8,0.6,3h-0.9l-0.3,0.6l1.8,1.8h0.3c0,0,0,0,0.3,0V126l-0.3-0.6
				c0-0.3,0-0.3,0-0.6v-0.3l0.3-0.3h0.3c0.6,0,1.2,0.3,1.2,1.2c0.3,0.6,0.3,1.5,0,1.8c0.3-0.9,0.6-1.5,1.2-1.8s1.2-0.3,2.4-0.3v2.7
				c1.2,0,1.8,0,2.1,0c0.3,0,0.9,0,1.8,0.6c0,0-0.3,0-0.6,0c-0.3,0-0.6,0.3-0.6,0.3v0.3c0,0.9,0.6,1.2,1.5,1.5s1.8,0.3,2.1,0.3l0,0
				c0,0.3-0.3,0.3-0.3,0.6s-0.3,0.3-0.3,0.3c-0.3,0-0.3,0-0.6,0c-0.3,0-0.3-0.3-0.6-0.3c-0.3,0-0.3,0-0.3-0.3l-0.6-0.3l-0.6-0.3
				c0,0-0.3,0-0.6,0.3c-0.3,0-0.6,0.3-0.6,0.3c1.2,0.9,2.1,2.1,3,3.6c-0.6,0.6-1.2,0.6-1.5,0.6s-0.9-0.3-1.8-0.3c0,0.3,0,0.3,0,0.3
				v0.3c0,0.3,0.3,0.6,0.6,0.9c0.3,0.3,0.3,0.6,0.6,0.6c0,0.3,0.3,0.6,0.9,0.9s0.9,0.6,0.9,0.9s0,0.6-0.3,1.2s-0.6,0.9-0.6,0.9
				c0-0.6-0.6-0.6-1.2-0.6c-0.3,0-0.3,0-0.6,0c-0.3,0-0.3,0.3-0.3,0.6c0.3,0,0.6,0.3,0.6,0.6c0,0.3,0,0.6,0,0.9c0,0.6,0,1.2-0.3,1.5
				c-0.3,0.3-0.6,0.3-1.2,0.6c-0.3,0-0.9,0-1.5,0s-1.2,0-1.5,0c-0.6,0.3-0.9,0.6-0.6,1.2s0,0.9-0.6,1.2c-0.3-0.6-0.6-0.9-0.9-0.9
				s-0.6,0-1.2,0c-1.2,0-1.8,0.3-2.1,0.6c-0.3,0.6-0.6,0.9-1.2,0.9l-1.2-0.6c-0.3,0-0.6-0.3-0.9-0.6c-0.3-0.3-0.6-0.6-0.9-0.6
				l-0.3,0.6L50,147c-0.3,0.6-0.6,1.2-0.6,1.8c0,0.6-0.3,1.2-0.3,1.5c0,0.6-0.3,0.9-0.6,1.5c-0.3,0.3-0.6,0.9-1.5,1.2
				c0.3-0.6,0.3-1.5,0-2.1s-0.9-0.9-1.5-0.9s-0.9,0.3-1.2,0.6c-0.3,0.3-0.6,0.9-0.6,1.2v-0.3c0-0.3,0-0.3,0-0.3c0-0.3,0-0.3,0-0.6
				v-0.3c0,0,0-0.3,0.3-0.9c0.3-0.3,0.3-0.6,0.3-0.9S44,148,43.7,148c-0.3,0-0.6,0-0.9,0c-0.6,0-1.2,0.3-2.1,0.6
				c-0.9,0.3-1.2,0.9-1.2,1.2v0.3c0,0.3,0.3,0.3,0.9,0.6c0.6,0.3,0.9,0.6,0.9,0.6s0,0.6,0,1.5s0,1.5,0,1.8v0.3l0.3,0.6l0,0v0.3
				c-0.9,0.6-1.5,0.9-1.8,1.2c-0.6,0.3-0.9,0.6-1.5,0.6c-0.6,0.3-0.9,0.3-0.9,0.3c0-0.9,0.3-1.5,0.6-1.8c0.6-0.3,0.6-0.9,0.6-1.8
				s-0.3-1.2-0.6-1.2c-0.3,0-0.9,0-1.5,0c0,0.3,0,0.6,0,0.9s0,0.6,0,0.9s-0.3,1.2-0.6,2.1c-0.3,0.3-0.3,0.9-0.3,1.2h-0.3
				c0-0.3,0-0.9-0.3-1.5c0-0.6-0.6-0.9-1.2-0.6c-0.3,0-1.2,0-2.4,0.3c-1.2,0.3-2.1,0.6-2.4,0.6l-0.3,0.3l-0.6,0.3h-0.9
				c0-1.2-0.6-2.1-1.5-2.7c0,0-0.3,0-0.6,0v2.7c-0.6,0-1.2-0.3-1.2-1.2c0-0.9-0.6-1.2-1.2-1.2c0,0.3,0,0.9,0,1.5s0,1.2,0,1.5
				s0,0.6,0.3,1.2c0.3,0.6,0.6,0.9,0.6,0.9l0.9,0.3c0.6,0.3,0.9,0.3,1.2,0.3c1.5,0.3,2.7,0.6,3.9,0.9c1.2,0.3,2.4,0.6,3.6,0.9
				s2.4,0.6,3.6,0.9c1.2,0,2.4,0.6,3.6,0.9c0.3,0,0.6,0.3,1.2,0.6c0.6,0.3,0.9,0.3,0.9,0.6c0,0,0.3,0.3,0.3,0.9s0.3,0.9,0.3,0.9
				s0.3,0,0.9,0.3s0.9,0.3,1.2,0.3h0.6c0.6,0,1.2,0,1.5-0.3s0.9-0.3,1.5-0.3c1.2,0,2.1,0,2.7,0.3c0.9,0.3,1.8,0.3,3,0.3
				c0,0.9,0.3,1.2,0.6,1.5c0.3,0,0.9,0.3,1.2,0.3c0.9,0,1.2,0,1.5-0.3c0-0.3,0.6-0.3,0.9-0.3s0.6,0,0.6,0.3s0,0.3,0,0.6
				c0,0.3,0,0.6,0,0.6c0,0.3,0.3,0.3,0.6,0.3c0.6,0,0.9-0.3,0.9-0.9s0-0.9,0.9-0.9H62h0.3c0.3,0,0.3,0,0.6,0c0.3,0,0.6,0,0.9,0
				c0.3,0,0.9,0,1.2,0c0.3,0.3,0.6,0.6,0.6,0.9c0,0.6,0.3,0.6,0.9,0.6l0,0l3-2.7h5.1l-0.3,0.6c0.3,0.6,0.9,1.2,1.8,1.2
				s1.8,0.3,2.1,1.2l-1.2,0.6c0,0.6,0,1.2,0,1.8c0,0.6-0.3,1.2-0.3,1.8c0,0.6,0,1.2,0,1.5c0,0.6-0.3,0.9-0.3,0.9s-0.3,0-0.9,0v0.6
				H77v3l0,0c-0.3,0-0.3,0-0.3,0s-0.3,0-0.3-0.3l-0.3-0.3c-0.3-0.3-0.6-0.3-1.2-0.6c-0.6-0.3-0.9-0.6-1.2-0.6h-0.3
				c0,0.6,0,0.9,0,0.9h0.3H74c0,0,0,0.3,0,0.6c0,0.6-0.3,0.9-0.6,1.2c-0.3,0.3-0.9,0.6-1.2,0.6h-0.6c0,0-0.6-0.3-1.5-0.3
				s-1.5-0.3-1.8-0.3H68h-0.3l-0.3,0.3v0.3c-0.3,0-0.6,0-0.9,0s-0.6,0-0.9,0v-2.1c-2.1,0.3-3.6,0.9-5.1,1.8v-2.7h-0.3h-0.3
				c0,0-0.3,0.3-0.3,0.9c0,0.3-0.3,0.9-0.3,0.9h-2.7l-0.6,0.9c0,0,0-0.3-0.3-0.6c-0.3,0-0.6,0-1.2-0.3c-0.3,0-0.6,0-0.9,0
				c-0.3-0.3,0-0.6,0-0.9c0.3-0.3,0.3-0.6,0.3-0.9c0,0-0.3,0-0.9,0s-0.9,0-0.9,0l-0.3,0.3l-0.3,0.3c-0.3,0-0.6,0-1.2,0s-0.9,0-1.2,0
				v-1.5l-0.3,0.3c0,0.3-0.3,0.3-0.3,0.3h-0.3l0,0c0,0-0.3,0-0.3-0.3c-0.3-0.3-0.3-0.3-0.3-0.3l0,0h-0.3c-0.6,0.3-0.9,0.6-0.9,1.2
				c-0.3,0.6-0.3,1.2-0.6,1.5c0,0.6-0.3,0.9-0.6,1.2s-0.3,0.6-0.6,0.6c-0.6,0-0.9,0-0.9-0.3s-0.3-0.6-0.3-0.9s0-0.6-0.3-0.9
				c0-0.3-0.3-0.3-0.9-0.3h0.3V184.6z M2.2,134.1c-0.3,0-0.3,0.3-0.3,0.6c0,0.3,0,0.6,0.3,0.6s0.3-0.3,0.3-0.6S2.2,134.1,2.2,134.1z
				 M7.3,139.5c-0.3,0-0.3,0.3-0.3,0.6c0,0.3,0,0.6,0.3,0.6s0.3-0.3,0.3-0.6C7.6,139.5,7.6,139.5,7.3,139.5z M7.9,136.5
				c-0.3,0.3-0.6,0.6-0.6,1.2c0.6,0,0.9-0.3,1.2-0.6L7.9,136.5z M7.9,146.4C7.9,146.1,7.9,146.1,7.9,146.4c-0.6-0.3-0.6-0.3-0.3,0
				C7.6,146.7,7.6,146.7,7.9,146.4C7.9,146.7,7.9,146.7,7.9,146.4z M10.3,132.3c-0.6,0-0.9,0.3-0.9,0.9c-0.3,0.6-0.3,1.2-0.3,1.2
				c0.3,0,0.6-0.3,1.2-0.6c0.6-0.3,0.9-0.6,0.9-0.9v-0.3c-0.3-0.3-0.3-0.3-0.6-0.3C10.6,132.6,10.3,132.3,10.3,132.3z M10.9,134.7
				c-0.3,0-0.3,0-0.3,0.6s0,0.9,0.3,0.6c0.3-0.3,0.3-0.3,0.3-0.6C11.2,135,10.9,134.7,10.9,134.7z M14.8,152.2c0,0.3,0,0.3-0.3,0.6
				c0,0.3-0.3,0.3,0,0.6c0,0,0.3,0,0.6,0.3c0.3,0.3,0.6,0.6,0.6,0.6c0.3,0,0.6-0.6,0.6-1.2s0-1.2,0-1.2c0-0.6,0-1.2-0.3-1.8
				c-0.3-0.3-0.3-0.9-0.3-1.8c0-0.6,0-0.9,0.3-1.2c0.3-0.3,0.6-0.6,1.2-0.6h0.3c0,0,0.3,0.3,0.6,0.6c0.3,0.3,0.6,0.6,0.6,0.6H19h0.3
				l0.3-0.3l0.6-0.3c0.3,0,0.6-0.3,1.2-0.3s0.9-0.3,1.2-0.3c0,0,0.3-0.6,0.3-1.2s0.3-0.9,0.3-1.2c0,0,0.3,0,0.9-0.3s0.9-0.3,1.2-0.3
				h0.3l0,0c0,0,0.3,0,0.9,0.3s0.9,0.3,0.9,0.3c0.6,0,1.5-0.3,2.4-0.9s1.8-1.2,2.1-1.2c0.3,0.9,0.3,1.5,0.6,1.8
				c0.3,0.3,0.9,0.6,1.5,0.6c0.3,0,0.6,0,1.2,0s1.2-0.3,1.2-0.6l0.9-4.5c0.6-0.3,1.2-0.3,2.1-0.6c0.9-0.3,1.8-0.3,2.1-0.3h0.3
				c0.3,0,0.6,0.3,0.9,0.6c0.3,0.3,0.6,0.6,0.9,0.6H44h0.3c0,0,0.3,0,0.3-0.3s0.3-0.3,0.3-0.3c0-0.3,0.3-0.6,0.3-1.5
				s0.3-1.5,0.3-1.8c0.3,0,0.9,0,2.1-0.3s1.8-0.3,2.1-0.3c0.3,0,0.9,0,1.8-0.3c0.3,0,0.9,0,1.2,0v-4.8c0,0.3,0,0.6,0.3,0.6
				c0.3,0.3,0.9,0.9,1.5,1.2c0.3,0.3,0.6,0.6,0.9,0.6l0.6-0.6c-0.9-1.2-1.2-2.4-1.5-3.3s-1.2-2.1-2.4-3c-0.6-0.3-1.2-0.9-2.4-1.8
				c-1.2-0.6-2.1-1.2-2.7-1.2c-1.2,0-2.1,0.3-2.7,0.9c-0.9,0.6-1.5,1.2-2.4,1.8c-0.9,0.6-1.8,1.2-2.7,1.8c-0.9,0.6-2.1,0.9-3.6,0.9
				h-0.3c-0.3,0-0.6-0.3-1.2-0.6c-0.6-0.3-0.9-0.6-1.2-0.6h-0.3h-0.3c0,0,0,0.3-0.3,0.9c0,0.3-0.3,0.9-0.3,0.9l-1.2,1.2l-0.3,0.3
				h-0.3l0,0c0,0-0.3,0.3-0.6,0.6c-0.3,0.3-0.6,0.6-0.6,0.6c-0.3,0-0.6,0-1.2,0s-0.9,0-1.2,0c0,0-0.3,0.3-0.3,0.6
				c0,0.6-0.3,0.9-0.3,0.9s0,0.3-0.3,0.3l-0.3,0.3l-0.3-0.6c-3,1.8-4.5,4.5-5.1,7.5c-0.6-0.3-1.2-0.3-1.5,0.3
				c-0.3,0.6-0.6,0.9-0.9,1.2c0,0.3,0,0.6-0.3,1.2s-0.3,0.9-0.3,1.2h-0.9l-1.2-2.7c0,0,0,0.3,0,0.6c0,0.3,0,0.6,0,0.6
				c0,0.9,0,1.5,0.3,1.8c0.3,0.6,0.3,1.2,0.3,1.8v0.3v0.3v0.3c0,0.3-0.3,0.3-0.9,0.6c-0.6,0-0.9,0.3-0.9,0v3.9h-1.5v0.6
				c0.6,0,1.2,0,1.5-0.3C13.3,152.5,13.9,152.2,14.8,152.2z M13,155.8C13,155.5,13,155.5,13,155.8c-0.6-0.3-0.6-0.3-0.3,0
				C12.7,156.1,12.7,156.1,13,155.8C13,156.1,13,156.1,13,155.8z M12.7,127.2C12.7,127.2,12.7,127.5,12.7,127.2
				c0.3,0.3,0.3,0.6,0.3,0.6c0.3,0,0.6,0,1.2,0s1.2,0,1.2,0c0-0.9-0.3-1.5-0.9-1.5h-0.3c-0.3,0-0.6,0-0.9,0.3
				C13,126.9,12.7,127.2,12.7,127.2z M14.5,129c-0.3,0-0.3,0.3-0.3,0.6c0,0.3,0,0.6,0.3,0.6s0.3-0.3,0.3-0.6
				C14.8,129,14.5,129,14.5,129z M14.8,120.6c0,0.9,0.3,1.5,0.9,1.8c0.6,0.3,1.2,0.6,1.8,0.6c0-1.2-0.3-1.8-0.6-2.1
				C16.3,120.6,15.7,120.6,14.8,120.6z M16,159.1c-0.3,0-0.3,0.3-0.3,0.6c0,0.3,0,0.6,0.3,0.6c0.3,0,0.3-0.3,0.3-0.6
				C16.6,159.4,16.3,159.1,16,159.1z M17.2,152.2c-0.3,0-0.3,0.3-0.3,0.6c0,0.3,0,0.6,0.3,0.6s0.3-0.3,0.3-0.6
				C17.8,152.5,17.5,152.2,17.2,152.2z M17.2,124.8c0,0.3,0.3,0.6,0.6,0.6c0.3,0,0.6-0.3,0.6-0.9c0-0.3,0-0.9,0-0.9
				c-0.3,0-0.6,0-0.9,0.3C17.5,123.9,17.2,124.2,17.2,124.8L17.2,124.8z M17.2,134.1c0,0.3,0.3,0.3,0.6,0.3l0,0l0,0
				c0,0,0-0.3-0.3-0.3s-0.3-0.3-0.3-0.3L17.2,134.1L17.2,134.1z M19.6,176.2c-0.3,0-0.6,0.3-0.6,0.6v0.3v0.3
				c0.6-0.3,0.9-0.3,1.5-0.6c0.6,0,0.9-0.6,0.9-1.2l0,0l0,0l0,0c-0.3-0.3-0.6-0.3-1.2-0.6c-0.6-0.3-0.9-0.6-1.2-0.6l-0.6,0.6v0.3
				v0.3l0,0c0,0,0,0.3,0.3,0.6C19.3,175.9,19.3,176.2,19.6,176.2z M19,178.6c-0.3,0-0.3,0.3-0.3,0.6s0,0.6,0.3,0.6s0.3-0.3,0.3-0.6
				S19.3,178.6,19,178.6z M19,129h0.6v-1.8H19V129z M19.6,150.1C19.6,149.8,19.6,149.8,19.6,150.1c-0.6-0.3-0.6-0.3-0.6,0
				s0,0.3,0.3,0.3S19.6,150.1,19.6,150.1z M19.6,179.5c-0.3,0-0.3,0-0.3,0.3s0,0.3,0.3,0.3C20.2,180.1,20.2,179.8,19.6,179.5z
				 M19.9,125.4C20.2,125.1,20.2,125.1,19.9,125.4c-0.6-0.3-0.6-0.3-0.3,0C19.6,125.7,19.9,125.7,19.9,125.4
				C19.9,125.7,19.9,125.7,19.9,125.4z M19.6,172.6h0.9v-0.3h-0.9V172.6z M21.1,180.1C21.4,180.1,21.4,179.8,21.1,180.1
				c-0.6-0.3-0.6-0.3-0.6,0C20.8,180.4,20.8,180.4,21.1,180.1C21.1,180.4,21.1,180.4,21.1,180.1z M21.7,177.7
				c-0.3,0-0.3,0.3-0.3,0.6c0,0.3,0,0.6,0.3,0.6s0.3-0.3,0.3-0.6C22.3,178,22,177.7,21.7,177.7z M21.7,163.9h0.6v-0.6h-0.6V163.9z
				 M22.3,122.1c-0.3,0-0.3,0.3-0.3,0.6c0,0.3,0,0.6,0.3,0.6s0.3-0.3,0.3-0.6C22.9,122.1,22.6,122.1,22.3,122.1z M22.9,122.7
				c-0.3,0-0.3,0.3-0.3,0.6c0,0.3,0,0.6,0.3,0.6s0.3-0.3,0.3-0.6C23.5,122.7,23.2,122.7,22.9,122.7z M23.5,129.9
				c-0.3,0-0.3,0.3-0.3,0.6c0,0.3,0,0.6,0.3,0.6s0.3-0.3,0.3-0.6C24.1,130.2,23.8,129.9,23.5,129.9z M23.5,175.6h1.2l-0.3-0.3h-0.3
				h-0.3h-0.3L23.5,175.6L23.5,175.6z M24.7,122.1c0,0.3,0,0.6,0,0.9s0.3,0.6,0.3,0.9h0.3h0.3l1.8-0.6V123c0-0.6-0.3-0.9-0.6-1.5
				c-0.3-0.6-0.9-0.9-1.2-1.2c0,0.3-0.3,0.6-0.6,0.9C25,121.5,24.7,121.8,24.7,122.1z M27.7,175.3c-0.6,0-0.9,0-1.2,0.3
				c-0.3,0.3-0.6,0.6-0.6,0.9h1.8L27.7,175.3L27.7,175.3z M28.9,175c0,0.3,0,0.3,0,0.6c0,0.3,0,0.6,0,0.6l0.3,0.9h0.6v-3.6
				C29.2,173.5,28.9,174.1,28.9,175z M29.2,122.1c-0.3,0-0.3,0.3-0.3,0.6c0,0.3,0,0.6,0.3,0.6s0.6-0.3,0.6-0.6
				C29.8,122.1,29.8,122.1,29.2,122.1z M29.2,128.4c-0.3,0-0.3,0.3-0.3,0.6c0,0.3,0,0.6,0.3,0.6s0.6-0.3,0.6-0.6
				S29.8,128.4,29.2,128.4z M30.4,118.8c-0.6,0-0.9,0.3-1.2,0.9h1.2V118.8z M30.1,127.8c0.3-0.6,0.3-1.2,0.3-1.5s0-0.9,0-1.5
				c0-0.3,0-0.6,0-0.9s-0.3-0.6-0.6-0.6v4.5H30.1z M31.9,156.1l0.3-0.3H31L31.9,156.1z M33.4,170.8c-0.3,0-0.3,0.3-0.3,0.6
				c0,0.3,0,0.6,0.3,0.6s0.3-0.3,0.3-0.6C34,171.1,33.7,170.8,33.4,170.8z M34,154C34.3,153.7,34,153.7,34,154
				c-0.6-0.3-0.6-0.3-0.6,0C33.7,154.6,34,154.6,34,154z M34,181.3C34.3,181,34,181,34,181.3c-0.6-0.3-0.6-0.3-0.6,0
				C33.7,181.9,34,181.9,34,181.3z M34,123.9c0.3,0.6,0.6,1.2,0.9,1.5s0.9,0.6,1.5,0.6c0.3,0,0.6,0,0.9,0s0.6-0.3,0.6-0.6
				c0,0-0.3,0-0.3-0.3s-0.3-0.3-0.3-0.3s-0.3,0-0.9-0.3c-0.3,0-0.6-0.3-0.9-0.3c0,0-0.3-0.3-0.3-0.6c0-0.3-0.3-0.6-0.3-0.6h-0.3
				h-0.3L34,123.9C34,123.6,34,123.6,34,123.9z M36.4,173.2c0-0.3,0-0.3-0.6-0.3c-0.3,0-0.6,0-0.6,0.3s0.3,0.3,0.6,0.3
				C36.1,173.5,36.4,173.5,36.4,173.2z M38.2,173.8c0.3,0,0.9-0.3,1.2-0.6h-1.2V173.8z M40,144h0.6v-0.6H40V144z M41.3,148.3v-0.6
				h-0.6L41.3,148.3z M40.7,139.8c0,0.3,0,0.6,0,1.2s0.3,1.2,0.3,1.5c0.3,0.6,0.3,0.9,0.6,1.5c0.3,0.3,0.6,0.6,1.2,0.6l0,0l0.3-0.3
				l0.3-0.3c0-0.3,0-0.6,0-1.5s0-1.2,0-1.5c-0.6,0-0.9,0.3-1.2,0.6c-0.3-0.6-0.3-0.9-0.6-1.2C41.9,139.8,41.3,139.8,40.7,139.8z
				 M43.4,119.7c0,0.3,0,0.6,0,0.9s0.3,0.6,0.6,0.9c0.3,0,0.6-0.3,0.6-0.6v-0.3c0-0.3,0-0.6-0.3-0.6C44,119.7,43.7,119.7,43.4,119.7
				z M43.4,146.4H44v-0.6h-0.6V146.4z M44.6,173.8c1.2,0.6,1.8,1.2,2.1,1.8c0.3,0,0.3,0,0.3,0l0.3-0.3c0-0.3,0-0.6,0-1.2
				s0-1.2,0-1.2c-0.6,0-0.9,0-1.5,0.3C45.5,173.2,45.2,173.5,44.6,173.8z M44.6,183.7h0.6c0-0.6-0.3-0.9-0.6-1.2V183.7z M46.4,176.5
				c0,0.6,0,0.9,0,1.5s0.6,0.9,1.2,0.9h0.3c0-0.6-0.3-1.2-0.3-1.8C47.3,176.8,47,176.5,46.4,176.5z M46.7,147c0,0.3,0,0.6,0,1.2
				s0.3,0.9,0.9,1.2c0.6,0,0.6-0.6,0.6-1.2s0-1.2,0-1.2H46.7z M47.6,151.9v-1.2L47,151L47.6,151.9z M47.3,136.8
				C47.3,136.8,47.6,136.8,47.3,136.8c0,0.3,0.3,0.6,0.3,0.6l0.3,0.3c0.3-0.9,0.6-1.2,1.5-1.2s1.5,0,2.1,0c-0.3-0.3-0.6-0.6-0.9-0.6
				s-0.6,0-0.9,0s-0.6,0-1.2,0C47.9,135.9,47.3,136.2,47.3,136.8z M52.1,137.7c-0.3,0-0.6,0.3-0.9,0.3s-0.6,0.3-0.6,0.6h2.1
				L52.1,137.7z M50.9,122.1h0.9v-0.6h-0.9V122.1z M52.1,182.8c-0.3,0-0.3,0.3-0.3,0.6c0,0.3,0,0.6,0.3,0.6s0.6-0.3,0.6-0.6
				C52.7,183.1,52.4,182.8,52.1,182.8z M53.9,147.7l0.6-0.6h-1.2L53.9,147.7z M53.9,140.4c-0.3,0-0.3,0.3-0.3,0.6
				c0,0.3,0,0.6,0.3,0.6s0.6-0.3,0.6-0.6S54.2,140.4,53.9,140.4z M54.5,138.3c0-0.3,0-0.3-0.3-0.3s-0.3,0-0.3,0.3s0.3,0.3,0.3,0.3
				L54.5,138.3z M53.9,145.2h0.6v-0.6h-0.6V145.2z M56.3,147c0-0.3,0-0.3-0.3-0.3s-0.3,0-0.3,0.3C55.7,147,56,147.3,56.3,147
				C56.3,147.3,56.3,147,56.3,147z M55.7,143.4h0.6v-0.6L55.7,143.4z M56.3,134.1c-0.3,0-0.3,0.3-0.3,0.6c0,0.3,0,0.6,0.3,0.6
				s0.3-0.3,0.3-0.6S56.6,134.1,56.3,134.1z M56.6,136.2c0,1.2,0.3,2.1,0.6,2.7c0.6,0.6,0.9,1.5,1.2,2.4c0.3-0.3,0.3-0.6,0.3-0.6
				l0,0v-0.3c0-0.3,0-0.6-0.3-0.9c0-0.3-0.3-0.6-0.3-0.9c-0.3-0.6-0.3-1.2-0.3-1.5C58.1,136.5,57.8,136.2,56.6,136.2z M58.7,144.6
				c-0.3,0-0.3,0.3-0.3,0.6c0,0.3,0,0.6,0.3,0.6s0.3-0.3,0.3-0.6C59,144.9,58.7,144.6,58.7,144.6z M59,129.9c-0.3,0-0.3,0.3-0.3,0.6
				c0,0.3,0,0.6,0.3,0.6s0.3-0.3,0.3-0.6S59.3,130.2,59,129.9z M59.6,127.8c-0.3,0-0.3,0.3-0.3,0.6c0,0.3,0,0.6,0.3,0.6
				s0.3-0.3,0.3-0.6C60.2,128.1,59.9,127.8,59.6,127.8z M62,138.3v-0.6h-1.8L62,138.3z M62.9,175c-1.2,0-1.5,0.3-1.5,1.2
				C62,176.2,62.6,175.9,62.9,175L62.9,175z M62.6,129.3c-0.3,0-0.3,0.3-0.3,0.6c0,0.3,0,0.6,0.3,0.6s0.3-0.3,0.3-0.6
				C63.2,129.6,62.9,129.3,62.6,129.3z M63.2,129.9c-0.3,0-0.3,0.3-0.3,0.6c0,0.3,0,0.6,0.3,0.6s0.3-0.3,0.3-0.6
				C63.8,130.2,63.5,129.9,63.2,129.9z M65.6,177.7c0,0,0,0.3,0.3,0.3l0.3,0.3c0.3,0,0.6,0,0.9-0.3s0.6-0.6,0.9-0.6l-0.6-0.6h-0.3
				h-0.3c0,0-0.3,0.3-0.6,0.3c-0.3,0-0.6,0.3-0.6,0.3L65.6,177.7L65.6,177.7z M66.8,182.8v-0.3h-0.6L66.8,182.8z M67.4,175
				c-0.3,0-0.3,0.3-0.3,0.6c0,0.3,0,0.6,0.3,0.6s0.3-0.3,0.3-0.6S67.7,175,67.4,175z M69.2,175.6c-0.3,0-0.6,0.3-0.6,0.6
				c0,0.3,0.3,0.6,0.6,0.6c0.3,0,0.3-0.3,0.3-0.6C69.5,175.6,69.2,175.6,69.2,175.6z M73.1,183.7c-0.6,0-1.2,0.3-1.2,0.6h0.3h0.3
				C72.5,184.3,72.8,184,73.1,183.7c0.3,0.3,0.3,0,0.3,0H73.1z"/>
		</g>
	</g>
</g>
</svg>
