<svg id="Layer_1" data-name="Layer 1" xmlns="http://www.w3.org/2000/svg" viewBox="0 0 495.3 106"><defs><style>.cls-1{fill:#e82861;}</style></defs><title>logo</title><path d="M7058.45,7225.3c.3,3.6,1.2,6,2.7,7.5,2.4,2.7,7.2,3.9,13.8,3.9,3.9,0,7.2-.6,9.3-1.8a5.77,5.77,0,0,0,3.6-5.4,5.56,5.56,0,0,0-2.7-5.1c-1.8-1.2-9-3.3-21-6-8.7-2.1-14.7-4.8-18.3-8.1s-5.4-7.8-5.4-13.8c0-7.2,2.7-13.2,8.4-18.3s13.5-7.5,23.4-7.5c9.6,0,17.4,1.8,23.4,5.7s9.6,10.5,10.5,19.8h-20.1a10.94,10.94,0,0,0-2.1-6c-2.1-2.7-6-4.2-11.4-4.2-4.5,0-7.5.6-9.3,2.1s-2.7,3-2.7,4.8a5.28,5.28,0,0,0,3,5.1c2.1,1.2,9,3,21,5.7,8.1,1.8,14.1,4.8,18,8.4a19.7,19.7,0,0,1,6,14.4c0,7.5-2.7,13.8-8.4,18.6s-14.4,7.2-26.2,7.2c-12,0-21-2.4-26.8-7.5a25.28,25.28,0,0,1-8.7-19.5Z" transform="translate(-6951.85 -7146.5)"/><path d="M7115.25,7188v-14.4h10.8v-21.4h19.8v21.3h12.3V7188h-12.3v40.6c0,3,.3,5.1,1.2,6s3.3,1.2,7.2,1.2h3.9v15l-9.6.3c-9.6.3-15.9-1.2-19.5-4.8-2.4-2.4-3.3-5.7-3.3-10.5v-47.2h-10.5Z" transform="translate(-6951.85 -7146.5)"/><path d="M7201.85,7203a57.37,57.37,0,0,0,8.1-1.8c3-1.2,4.2-3,4.2-5.7,0-3-1.2-5.4-3.3-6.6s-5.4-1.8-9.6-1.8c-4.8,0-8.1,1.2-10.2,3.6a16.12,16.12,0,0,0-3,6.9h-19.2a28.66,28.66,0,0,1,5.7-16.5c5.4-6.6,14.4-10.2,27.4-10.2a49.69,49.69,0,0,1,22.5,5.1q9.9,5,9.9,18.9v44.2a10.14,10.14,0,0,0,1.2,5.4,6.27,6.27,0,0,0,3,2.4v3h-21.9a25,25,0,0,1-1.2-4.5c-.3-1.5-.3-3-.6-4.5a40.52,40.52,0,0,1-9.6,7.8,29.65,29.65,0,0,1-14.7,3.6,26.63,26.63,0,0,1-17.4-6c-4.5-3.9-6.9-9.6-6.9-16.8,0-9.3,3.6-16.2,11.1-20.4,3.9-2.4,9.9-3.9,17.7-4.8Zm12,9.7a11.37,11.37,0,0,1-3.9,1.8c-1.2.3-3,.9-5.4,1.5l-4.5.9a35.15,35.15,0,0,0-9.3,2.7,9,9,0,0,0-4.8,8.4c0,3.3.9,6,3,7.5a11.33,11.33,0,0,0,6.9,2.4,19.18,19.18,0,0,0,12-3.9c3.6-2.7,5.7-7.2,5.7-13.8v-7.5Z" transform="translate(-6951.85 -7146.5)"/><path d="M7297.45,7200.6a14.71,14.71,0,0,0-3-7.8c-2.4-3-5.7-4.5-10.5-4.5-6.9,0-11.4,3.3-13.8,10.2a45.11,45.11,0,0,0-2.1,14.1c0,5.7.6,10.2,2.1,13.5,2.4,6.3,6.9,9.6,13.5,9.6,4.8,0,8.1-1.2,9.9-3.9a19.53,19.53,0,0,0,3.6-9.9h20.4a35.6,35.6,0,0,1-6.6,17.4c-6.3,8.7-15.6,13.2-28,13.2s-21.3-3.6-27.4-11.1-8.7-16.8-8.7-28.6c0-13.2,3.3-23.4,9.6-30.7s15.3-11.1,26.8-11.1c9.6,0,17.4,2.1,23.7,6.6s9.6,12,10.8,22.8l-20.3.2Z" transform="translate(-6951.85 -7146.5)"/><path d="M7331.75,7146.5h19.8v55.9l25.3-28.9h25l-27.7,28.6,28.6,47.8h-24.4l-18.6-32.8-8.4,8.7v24.1h-19.8V7146.5Z" transform="translate(-6951.85 -7146.5)"/><path d="M7404.15,7188v-14.4H7415v-21.4h19.8v21.3h12.4V7188h-12.3v40.6c0,3,.3,5.1,1.2,6s3.3,1.2,7.2,1.2h3.9v15l-9.6.3c-9.6.3-15.9-1.2-19.5-4.8-2.4-2.4-3.3-5.7-3.3-10.5v-47.2h-10.6Z" transform="translate(-6951.85 -7146.5)"/><path class="cls-1" d="M6992.65,7243.6c-.3.3-.3.6-.6.9,0,.3-.3.6-.3.9,0-.3,0-.6-.3-.6h-3a5.25,5.25,0,0,1-1.5-.3,7.63,7.63,0,0,0-2.1-.6h-.3l-.6-.3h-.6l-.3.3h-.6v-1.2c-.3-.6-.3-.9-.6-1.2s-.6-.3-1.5-.6a3.26,3.26,0,0,0-1.5-.3v-1.2l-2.4,1.5-.3-.3c-.3-.3-.6-.6-.6-.9-.3-.3-.3-.6,0-1.2s0-.9-.6-.9c-.6.3-.6.3-.6.6v.9a1.1,1.1,0,0,1-.3.9c-.3.3-.6.3-1.5.3a6.11,6.11,0,0,1-3.3-.6,2.2,2.2,0,0,1-.6-1.8v-2.1c0-.6-.3-1.2-.9-1.2a6.1,6.1,0,0,0-1.5-.3h-1.8l.6-1.2a3.41,3.41,0,0,1-2.4-.9l-1.8-1.8a16.75,16.75,0,0,1-1.5-2.4c-.3-.9-.9-1.5-1.2-2.4a3.71,3.71,0,0,1-.6-.9,4.14,4.14,0,0,0-.9-1.2,15.15,15.15,0,0,1-2.4-3.9,27.86,27.86,0,0,0-1.2-3.9l-.3-.3-.3-.3a16.15,16.15,0,0,1-.3-2.4,10.64,10.64,0,0,0-.3-2.1v-2.1a3.81,3.81,0,0,1,.3-1.8,4.45,4.45,0,0,0,.3-2.1v-.6a.93.93,0,0,0-.3-.6.93.93,0,0,1-.3-.6v-4.9c0-.9.3-2.1.3-3.3.3-1.2.6-2.1.9-3a1.53,1.53,0,0,1,1.5-1.2c0,.6,0,.9-.3,1.2s-.3.6-.3,1.2h1.8c.9,0,1.2,0,1.5-.6,0-.3.3-.6.3-1.2a2.32,2.32,0,0,0,.3-.9h.3v1.2a1.1,1.1,0,0,1,.9.3c.3,0,.6.3.6,0l.3-.3.2-.3a2.27,2.27,0,0,0,1.2-.3c.6,0,.9-.3,1.2-.3v-.6a8.88,8.88,0,0,0-.6-3,5.93,5.93,0,0,1-.6-3.3,2.25,2.25,0,0,1,1.5.3,2.7,2.7,0,0,0,1.5.3c.6,0,.9-.3.9-.6-.3-.6-.6-.6-.9-.6a1.8,1.8,0,0,1-1.2-.3v-.3a5.07,5.07,0,0,1,.6-1.5,5.07,5.07,0,0,0,.6-1.5h3.6c.9,0,1.5.3,1.5.9a.93.93,0,0,1-.3.6.93.93,0,0,0-.3.6v.3a8.31,8.31,0,0,0,2.7-.3,4.52,4.52,0,0,0,2.4-1.2c.3-.3.3-.9.6-1.8,0-.9.6-1.5.9-1.5a1.42,1.42,0,0,0,1.5,1.5h1.2c.3,0,.9-.3.9-.6v-.9l-.3-.6h-2.1c.3,0,.3,0,.3-.3v-1.5a1,1,0,0,0-.3-.6h.6a2.32,2.32,0,0,1,.9.3,4.32,4.32,0,0,0,.9.6,6.1,6.1,0,0,0,1.5.3,1.39,1.39,0,0,1,1.5.9,6.61,6.61,0,0,1,.3,2.4,3,3,0,0,0,1.2,2.1h.6v-1.2h.3l.6.6.6.6h.3a3.26,3.26,0,0,0,1.5-.3,13,13,0,0,0,1.5-.3v-.3a.8.8,0,0,0-.9-.9c-.6,0-1.2-.3-1.2-.6h0v-.3c0-.3.3-.6.6-.9s.3-.6.6-.6.6.3,1.2.6.9.6,1.2.6h0c1.2,0,1.8-.3,1.8-1.2.3-.6.6-1.5,1.2-1.8a4.14,4.14,0,0,1,.9,1.2,4.14,4.14,0,0,0,.9,1.2.29.29,0,0,1,.3.3,1,1,0,0,0,.3.6h.3a.29.29,0,0,0,.3-.3h.3v-4.8l.9-.3a6.16,6.16,0,0,0,0,3.3,10.75,10.75,0,0,0,1.2,3.3l.9-.3v-5.4h1c.3,0,.3,0,.3.3.3.3.3.9.6,1.8a10.61,10.61,0,0,0,.3,1.8h.3l.6-.6.6-.6h5.1c-.3.3-.3.6-.6,1.2a3,3,0,0,0-.3,1.2v.6c0,.3.3.3.3.6.3.3.6.3,1.5.3h1.5c0,.3-.3.3-.6.3h-1.2c-.3,0-.9.3-1.2.3a1.87,1.87,0,0,0-.9,1.5,3.26,3.26,0,0,0-.3-1.5,3.26,3.26,0,0,1-.3-1.5v-.9c0-.3-.3-.6-.3-.9-.3-.6-.6-.6-.6-.6a3,3,0,0,1-.9.3,6.45,6.45,0,0,0,.6,3,7.53,7.53,0,0,1,.6,3h-.9l-.3.6,1.8,1.8h.6v-.3l-.3-.6v-.9l.3-.3h.3a1.1,1.1,0,0,1,1.2,1.2,1.89,1.89,0,0,1,0,1.8,2.75,2.75,0,0,1,1.2-1.8,5.16,5.16,0,0,1,2.4-.3v2.7h2.1a3,3,0,0,1,1.8.6h-.6a1,1,0,0,0-.6.3v.3c0,.9.6,1.2,1.5,1.5a6.76,6.76,0,0,0,2.1.3h0c0,.3-.3.3-.3.6a.29.29,0,0,1-.3.3h-.6c-.3,0-.3-.3-.6-.3s-.3,0-.3-.3l-.6-.3-.6-.3a.93.93,0,0,0-.6.3,1,1,0,0,0-.6.3,12,12,0,0,1,3,3.6,1.94,1.94,0,0,1-1.5.6,10.61,10.61,0,0,0-1.8-.3v.6c0,.3.3.6.6.9s.3.6.6.6q0,.45.9.9t.9.9a2.27,2.27,0,0,1-.3,1.2,3.71,3.71,0,0,1-.6.9c0-.6-.6-.6-1.2-.6h-.6c-.3,0-.3.3-.3.6a.65.65,0,0,1,.6.6v.9a2.25,2.25,0,0,1-.3,1.5c-.3.3-.6.3-1.2.6h-3c-.6.3-.9.6-.6,1.2s0,.9-.6,1.2q-.45-.9-.9-.9h-1.2a2.87,2.87,0,0,0-2.1.6c-.3.6-.6.9-1.2.9l-1.2-.6c-.3,0-.6-.3-.9-.6s-.6-.6-.9-.6l-.3.6.3.6a4.26,4.26,0,0,0-.6,1.8,13,13,0,0,1-.3,1.5c0,.6-.3.9-.6,1.5a3.25,3.25,0,0,1-1.5,1.2,2.56,2.56,0,0,0,0-2.1,1.65,1.65,0,0,0-1.5-.9,1.56,1.56,0,0,0-1.2.6,2.27,2.27,0,0,0-.6,1.2v-1.5a2.32,2.32,0,0,1,.3-.9,1.1,1.1,0,0,0,.3-.9.56.56,0,0,0-.6-.5h-.9a7.63,7.63,0,0,0-2.1.6c-.9.3-1.2.9-1.2,1.2v.3c0,.3.3.3.9.6a3.71,3.71,0,0,1,.9.6v3.6l.3.6h0v.3a17.77,17.77,0,0,0-1.8,1.2c-.6.3-.9.6-1.5.6a2.32,2.32,0,0,1-.9.3,2.54,2.54,0,0,1,.6-1.8c.6-.3.6-.9.6-1.8s-.3-1.2-.6-1.2h-1.5v1.8a12.23,12.23,0,0,1-.6,2.1,1.8,1.8,0,0,0-.3,1.2h-.3a3.26,3.26,0,0,0-.3-1.5c0-.6-.6-.9-1.2-.6a9.65,9.65,0,0,0-2.4.3c-1.2.3-2.1.6-2.4.6l-.3.3-.6.3h-.9a3.15,3.15,0,0,0-1.5-2.7h-.6v2.7a1.1,1.1,0,0,1-1.2-1.2,1.1,1.1,0,0,0-1.2-1.2v3a2.27,2.27,0,0,0,.3,1.2,3.71,3.71,0,0,0,.6.9l.9.3a2.27,2.27,0,0,0,1.2.3c1.5.3,2.7.6,3.9.9l3.6.9,3.6.9a15.82,15.82,0,0,1,3.6.9c.3,0,.6.3,1.2.6s.9.3.9.6a1.31,1.31,0,0,1,.3.9,1.31,1.31,0,0,0,.3.9,2.32,2.32,0,0,1,.9.3,2.27,2.27,0,0,0,1.2.3h.6a2.25,2.25,0,0,0,1.5-.3,2.25,2.25,0,0,1,1.5-.3,6.66,6.66,0,0,1,2.7.3,9.25,9.25,0,0,0,3,.3,1.76,1.76,0,0,0,.6,1.5c.3,0,.9.3,1.2.3.9,0,1.2,0,1.5-.3,0-.3.6-.3.9-.3s.6,0,.6.3v1.2c0,.3.3.3.6.3a.8.8,0,0,0,.9-.9c0-.6,0-.9.9-.9h3.3c.3.3.6.6.6.9,0,.6.3.6.9.6h0l3-2.7h5.1l-.3.6a2,2,0,0,0,1.8,1.2,2,2,0,0,1,2.1,1.2l-1.2.6v1.8c0,.6-.3,1.2-.3,1.8v1.5a1.31,1.31,0,0,1-.3.9h-.9v.6h1.5v3h-.3a.29.29,0,0,1-.3-.3l-.3-.3c-.3-.3-.6-.3-1.2-.6s-.9-.6-1.2-.6h-.3v.9h.6v.6a1.56,1.56,0,0,1-.6,1.2,2.27,2.27,0,0,1-1.2.6h-.6a3.64,3.64,0,0,0-1.5-.3,10.61,10.61,0,0,1-1.8-.3h-.6l-.3.3v.3h-1.8v-2.1a12.85,12.85,0,0,0-5.1,1.8v-2.7h-.6a1.31,1.31,0,0,0-.3.9,3,3,0,0,1-.3.9h-2.7l-.6.9a.93.93,0,0,0-.3-.6,2.27,2.27,0,0,1-1.2-.3h-.9c-.3-.3,0-.6,0-.9a1.1,1.1,0,0,0,.3-.9h-1.8l-.3.3-.3.3h-2.4v-1.5l-.3.3a.29.29,0,0,1-.3.3h-.3a.29.29,0,0,1-.3-.3l-.3-.3h-.3c-.6.3-.9.6-.9,1.2-.3.6-.3,1.2-.6,1.5a1.56,1.56,0,0,1-.6,1.2c-.3.3-.3.6-.6.6-.6,0-.9,0-.9-.3s-.3-.6-.3-.9a1.1,1.1,0,0,0-.3-.9c0-.3-.3-.3-.9-.3h.3Zm-40.3-50.5c-.3,0-.3.3-.3.6s0,.6.3.6.3-.3.3-.6A1,1,0,0,0,6952.35,7193.1Zm5.1,5.4c-.3,0-.3.3-.3.6s0,.6.3.6.3-.3.3-.6C6957.75,7198.5,6957.75,7198.5,6957.45,7198.5Zm.6-3a.71.71,0,1,0,.6.6Zm0,9.9h0c-.6-.3-.6-.3-.3,0,0,.3,0,.3.3,0Zm2.4-14.1a.8.8,0,0,0-.9.9,3,3,0,0,0-.3,1.2c.3,0,.6-.3,1.2-.6s.9-.6.9-.9v-.3c-.3-.3-.3-.3-.6-.3C6960.75,7191.6,6960.45,7191.3,6960.45,7191.3Zm.6,2.4c-.3,0-.3,0-.3.6s0,.9.3.6.3-.3.3-.6A1,1,0,0,0,6961.05,7193.7Zm3.9,17.5c0,.3,0,.3-.3.6,0,.3-.3.3,0,.6a.93.93,0,0,1,.6.3l.6.6c.3,0,.6-.6.6-1.2v-1.2a3.81,3.81,0,0,0-.3-1.8c-.3-.3-.3-.9-.3-1.8,0-.6,0-.9.3-1.2a1.56,1.56,0,0,1,1.2-.6h.3l.6.6.6.6h.6l.3-.3.6-.3c.3,0,.6-.3,1.2-.3s.9-.3,1.2-.3a3.1,3.1,0,0,0,.3-1.2c0-.6.3-.9.3-1.2a2.32,2.32,0,0,0,.9-.3,2.27,2.27,0,0,1,1.2-.3h.3a2.32,2.32,0,0,1,.9.3,2.32,2.32,0,0,0,.9.3,4.79,4.79,0,0,0,2.4-.9,8.22,8.22,0,0,1,2.1-1.2c.3.9.3,1.5.6,1.8a2.29,2.29,0,0,0,1.5.6h1.2c.6,0,1.2-.3,1.2-.6l.9-4.5a19.12,19.12,0,0,1,2.1-.6,6.76,6.76,0,0,1,2.1-.3h.3c.3,0,.6.3.9.6s.6.6.9.6h.7a.29.29,0,0,0,.3-.3.29.29,0,0,1,.3-.3,6.1,6.1,0,0,0,.3-1.5,10.61,10.61,0,0,1,.3-1.8,7.92,7.92,0,0,0,2.1-.3,7.92,7.92,0,0,1,2.1-.3,5.28,5.28,0,0,0,1.8-.3h1.2V7189c0,.3,0,.6.3.6a6.54,6.54,0,0,0,1.5,1.2c.3.3.6.6.9.6l.6-.6a10.34,10.34,0,0,1-1.5-3.3,7.05,7.05,0,0,0-2.4-3,23.92,23.92,0,0,1-2.4-1.8,9.23,9.23,0,0,0-2.7-1.2,3.67,3.67,0,0,0-2.7.9c-.9.6-1.5,1.2-2.4,1.8l-2.7,1.8a6.4,6.4,0,0,1-3.6.9h-.3c-.3,0-.6-.3-1.2-.6s-.9-.6-1.2-.6h-.6a2.32,2.32,0,0,1-.3.9,3,3,0,0,1-.3.9l-1.2,1.2-.3.3h-.3l-.6.6-.6.6h-2.4a1,1,0,0,0-.3.6,1.31,1.31,0,0,1-.3.9.29.29,0,0,1-.3.3l-.3.3-.3-.6a10.8,10.8,0,0,0-5.1,7.5c-.6-.3-1.2-.3-1.5.3a4.14,4.14,0,0,1-.9,1.2,2.27,2.27,0,0,1-.3,1.2,2.27,2.27,0,0,0-.3,1.2h-.9l-1.2-2.7v1.2c0,.9,0,1.5.3,1.8a3.81,3.81,0,0,1,.3,1.8v.9c0,.3-.3.3-.9.6-.6,0-.9.3-.9,0v3.9h-1.5v.6a2.25,2.25,0,0,0,1.5-.3C6963.45,7211.5,6964.05,7211.2,6965,7211.2Zm-1.8,3.6h0c-.6-.3-.6-.3-.3,0,0,.3,0,.3.3,0Zm-.3-28.6h0a.93.93,0,0,1,.3.6h2.4c0-.9-.3-1.5-.9-1.5h-.3a1.1,1.1,0,0,0-.9.3Zm1.8,1.8c-.3,0-.3.3-.3.6s0,.6.3.6.3-.3.3-.6C6965,7188,6964.65,7188,6964.65,7188Zm.3-8.4a1.81,1.81,0,0,0,.9,1.8,4.26,4.26,0,0,0,1.8.6,2.87,2.87,0,0,0-.6-2.1A4.45,4.45,0,0,0,6965,7179.6Zm1.2,38.5c-.3,0-.3.3-.3.6s0,.6.3.6.3-.3.3-.6C6966.75,7218.4,6966.45,7218.1,6966.15,7218.1Zm1.2-6.9c-.3,0-.3.3-.3.6s0,.6.3.6.3-.3.3-.6C6968,7211.5,6967.65,7211.2,6967.35,7211.2Zm0-27.4a.65.65,0,0,0,.6.6c.3,0,.6-.3.6-.9v-.9a1.1,1.1,0,0,0-.9.3,1.31,1.31,0,0,0-.3.9Zm0,9.3c0,.3.3.3.6.3h0a.29.29,0,0,0-.3-.3.29.29,0,0,1-.3-.3v.3Zm2.4,42.1a.65.65,0,0,0-.6.6v.6c.6-.3.9-.3,1.5-.6.6,0,.9-.6.9-1.2h0c-.3-.3-.6-.3-1.2-.6s-.9-.6-1.2-.6l-.6.6v.6h0a.93.93,0,0,0,.3.6C6969.45,7234.9,6969.45,7235.2,6969.75,7235.2Zm-.6,2.4c-.3,0-.3.3-.3.6s0,.6.3.6.3-.3.3-.6S6969.45,7237.6,6969.15,7237.6Zm0-49.6h.6v-1.8h-.6Zm.6,21.1h0c-.6-.3-.6-.3-.6,0s0,.3.3.3A.29.29,0,0,0,6969.75,7209.1Zm0,29.4c-.3,0-.3,0-.3.3s0,.3.3.3C6970.35,7239.1,6970.35,7238.8,6969.75,7238.5Zm.3-54.1h0c-.6-.3-.6-.3-.3,0,0,.3.3.3.3,0Zm-.3,47.2h.9v-.3h-.9Zm1.5,7.5c.3,0,.3-.3,0,0-.6-.3-.6-.3-.6,0,.3.3.3.3.6,0Zm.6-2.4c-.3,0-.3.3-.3.6s0,.6.3.6.3-.3.3-.6C6972.45,7237,6972.15,7236.7,6971.85,7236.7Zm0-13.8h.6v-.6h-.6Zm.6-41.8c-.3,0-.3.3-.3.6s0,.6.3.6.3-.3.3-.6C6973.05,7181.1,6972.75,7181.1,6972.45,7181.1Zm.6.6c-.3,0-.3.3-.3.6s0,.6.3.6.3-.3.3-.6C6973.65,7181.7,6973.35,7181.7,6973.05,7181.7Zm.6,7.2c-.3,0-.3.3-.3.6s0,.6.3.6.3-.3.3-.6C6974.25,7189.2,6974,7188.9,6973.65,7188.9Zm0,45.7h1.2l-.3-.3h-.9v.3Zm1.2-53.5v.9c0,.3.3.6.3.9h.6l1.8-.6v-.3c0-.6-.3-.9-.6-1.5s-.9-.9-1.2-1.2c0,.3-.3.6-.6.9C6975.15,7180.5,6974.85,7180.8,6974.85,7181.1Zm3,53.2c-.6,0-.9,0-1.2.3s-.6.6-.6.9h1.8v-1.2Zm1.2-.3v1.2l.3.9h.6v-3.6C6979.35,7232.5,6979.05,7233.1,6979.05,7234Zm.3-52.9c-.3,0-.3.3-.3.6s0,.6.3.6a.65.65,0,0,0,.6-.6C6980,7181.1,6980,7181.1,6979.35,7181.1Zm0,6.3c-.3,0-.3.3-.3.6s0,.6.3.6a.65.65,0,0,0,.6-.6C6980,7187.7,6980,7187.4,6979.35,7187.4Zm1.2-9.6c-.6,0-.9.3-1.2.9h1.2Zm-.3,9a3.26,3.26,0,0,0,.3-1.5v-2.4a.65.65,0,0,0-.6-.6v4.5Zm1.8,28.3.3-.3h-1.2Zm1.5,14.7c-.3,0-.3.3-.3.6s0,.6.3.6.3-.3.3-.6C6984.15,7230.1,6983.85,7229.8,6983.55,7229.8Zm.6-16.8c.3-.3,0-.3,0,0-.6-.3-.6-.3-.6,0C6983.85,7213.6,6984.15,7213.6,6984.15,7213Zm0,27.3c.3-.3,0-.3,0,0-.6-.3-.6-.3-.6,0C6983.85,7240.9,6984.15,7240.9,6984.15,7240.3Zm0-57.4a6.56,6.56,0,0,0,.9,1.5,2.29,2.29,0,0,0,1.5.6h.9a.65.65,0,0,0,.6-.6.29.29,0,0,1-.3-.3.29.29,0,0,0-.3-.3,2.32,2.32,0,0,1-.9-.3c-.3,0-.6-.3-.9-.3a1,1,0,0,1-.3-.6,1,1,0,0,0-.3-.6h-.6l-.3.9Zm2.4,49.3c0-.3,0-.3-.6-.3-.3,0-.6,0-.6.3s.3.3.6.3S6986.55,7232.5,6986.55,7232.2Zm1.8.6a2.27,2.27,0,0,0,1.2-.6h-1.2Zm1.8-29.8h.6v-.6h-.6Zm1.3,4.3v-.6h-.6Zm-.6-8.5v1.2a13,13,0,0,0,.3,1.5c.3.6.3.9.6,1.5a1.56,1.56,0,0,0,1.2.6h0l.3-.3.3-.3v-3a1.56,1.56,0,0,0-1.2.6c-.3-.6-.3-.9-.6-1.2C6992.05,7198.8,6991.45,7198.8,6990.85,7198.8Zm2.7-20.1v.9c0,.3.3.6.6.9a.65.65,0,0,0,.6-.6v-.3c0-.3,0-.6-.3-.6A1.1,1.1,0,0,0,6993.55,7178.7Zm0,26.7h.6v-.6h-.6Zm1.2,27.4a4.32,4.32,0,0,1,2.1,1.8h.3l.3-.3v-2.4a2.7,2.7,0,0,0-1.5.3C6995.65,7232.2,6995.35,7232.5,6994.75,7232.8Zm0,9.9h.6a1.56,1.56,0,0,0-.6-1.2Zm1.8-7.2v1.5c0,.6.6.9,1.2.9h.3c0-.6-.3-1.2-.3-1.8A1.56,1.56,0,0,0,6996.55,7235.5Zm.3-29.5v1.2c0,.6.3.9.9,1.2.6,0,.6-.6.6-1.2V7206Zm.9,4.9v-1.2l-.6.3Zm-.3-15.1h0a1,1,0,0,0,.3.6l.3.3c.3-.9.6-1.2,1.5-1.2h2.1c-.3-.3-.6-.6-.9-.6h-2.1C6998.05,7194.9,6997.45,7195.2,6997.45,7195.8Zm4.8.9c-.3,0-.6.3-.9.3a.65.65,0,0,0-.6.6h2.1Zm-1.2-15.6h.9v-.6h-.9Zm1.2,60.7c-.3,0-.3.3-.3.6s0,.6.3.6a.6.6,0,0,0,0-1.2Zm1.8-35.1.6-.6h-1.2Zm0-7.3c-.3,0-.3.3-.3.6s0,.6.3.6a.6.6,0,1,0,0-1.2Zm.6-2.1c0-.3,0-.3-.3-.3s-.3,0-.3.3a.29.29,0,0,0,.3.3Zm-.6,6.9h.6v-.6h-.6Zm2.4,1.8c0-.3,0-.3-.3-.3s-.3,0-.3.3a.42.42,0,0,0,.6,0Zm-.6-3.6h.6v-.6Zm.6-9.3c-.3,0-.3.3-.3.6s0,.6.3.6.3-.3.3-.6S7006.75,7193.1,7006.45,7193.1Zm.3,2.1a6,6,0,0,0,.6,2.7,6,6,0,0,1,1.2,2.4.93.93,0,0,0,.3-.6h0v-.3a1.1,1.1,0,0,0-.3-.9c0-.3-.3-.6-.3-.9a3.26,3.26,0,0,1-.3-1.5C7008.25,7195.5,7008,7195.2,7006.75,7195.2Zm2.1,8.4c-.3,0-.3.3-.3.6s0,.6.3.6.3-.3.3-.6A1,1,0,0,0,7008.85,7203.6Zm.3-14.7c-.3,0-.3.3-.3.6s0,.6.3.6.3-.3.3-.6S7009.45,7189.2,7009.15,7188.9Zm.6-2.1c-.3,0-.3.3-.3.6s0,.6.3.6.3-.3.3-.6C7010.35,7187.1,7010.05,7186.8,7009.75,7186.8Zm2.4,10.5v-.6h-1.8Zm.9,36.7c-1.2,0-1.5.3-1.5,1.2a1.53,1.53,0,0,0,1.5-1.2Zm-.3-45.7c-.3,0-.3.3-.3.6s0,.6.3.6.3-.3.3-.6C7013.35,7188.6,7013.05,7188.3,7012.75,7188.3Zm.6.6c-.3,0-.3.3-.3.6s0,.6.3.6.3-.3.3-.6C7014,7189.2,7013.65,7188.9,7013.35,7188.9Zm2.4,47.8a.29.29,0,0,0,.3.3l.3.3a1.1,1.1,0,0,0,.9-.3c.3-.3.6-.6.9-.6l-.6-.6h-.6a1,1,0,0,1-.6.3,1,1,0,0,0-.6.3v.3Zm1.2,5.1v-.3h-.6Zm.6-7.8c-.3,0-.3.3-.3.6s0,.6.3.6.3-.3.3-.6S7017.85,7234,7017.55,7234Zm1.8.6a.6.6,0,0,0,0,1.2c.3,0,.3-.3.3-.6C7019.65,7234.6,7019.35,7234.6,7019.35,7234.6Zm3.9,8.1c-.6,0-1.2.3-1.2.6h.6l.6-.6c.3.3.3,0,.3,0Z" transform="translate(-6951.85 -7146.5)"/></svg>